<?xml version="1.0" encoding="UTF-8" standalone="no"?>
<!DOCTYPE svg PUBLIC "-//W3C//DTD SVG 1.1//EN" "http://www.w3.org/Graphics/SVG/1.1/DTD/svg11.dtd">
<svg width="100%" height="100%" viewBox="0 0 127 141" version="1.1" xmlns="http://www.w3.org/2000/svg" xmlns:xlink="http://www.w3.org/1999/xlink" xml:space="preserve" xmlns:serif="http://www.serif.com/" style="fill-rule:evenodd;clip-rule:evenodd;stroke-linecap:round;stroke-linejoin:round;stroke-miterlimit:1.5;">
    <path d="M63.349,13.343L0.416,76.275L63.349,139.208L126.281,76.275L63.349,13.343Z" style="fill:#fff1d4;stroke:#fff;stroke-width:0.72px;"/>
    <path d="M63.115,13.547L0.5,76.697L63.612,139.824L126.287,76.623L63.115,13.547Z" style="fill:#fff1d4;stroke:#000;stroke-width:1px;"/>
    <path d="M63.13,14.163L63.657,139.542" style="fill:none;stroke:#000;stroke-width:0.7px;"/>
    <path d="M0.865,76.474L125.922,76.474" style="fill:none;stroke:#000;stroke-width:0.7px;"/>
    <g transform="matrix(1,0.00071664,-0.00071664,1,-0.132129,0.417517)">
        <text x="9.386px" y="5.288px" style="font-family:'HelveticaNeue-Bold', 'Helvetica Neue';font-weight:700;font-size:8px;">That I need to use this system</text>
    </g>
    <ellipse cx="63.394" cy="76.686" rx="2.002" ry="2" style="fill:#fff1d4;"/>
    <path d="M63.31,44.839L27.135,76.549L63.396,107.158L100.167,76.54L63.31,44.839Z" style="fill:#eedbb6;fill-opacity:0.64;stroke:#000;stroke-width:1.09px;"/>
    <ellipse cx="63.401" cy="44.958" rx="2.766" ry="2.73" style="fill:#fff;stroke:#000;stroke-width:1px;"/>
    <ellipse cx="99.91" cy="76.585" rx="2.766" ry="2.73" style="fill:#fff;stroke:#000;stroke-width:1px;"/>
    <ellipse cx="63.364" cy="106.844" rx="2.766" ry="2.73" style="fill:#fff;stroke:#000;stroke-width:1px;"/>
    <ellipse cx="27.495" cy="76.64" rx="2.766" ry="2.73" style="fill:#fff;stroke:#000;stroke-width:1px;"/>
</svg>
