<?xml version="1.0" encoding="UTF-8" standalone="no"?>
<!DOCTYPE svg PUBLIC "-//W3C//DTD SVG 1.1//EN" "http://www.w3.org/Graphics/SVG/1.1/DTD/svg11.dtd">
<svg width="100%" height="100%" viewBox="0 0 232 144" version="1.1" xmlns="http://www.w3.org/2000/svg" xmlns:xlink="http://www.w3.org/1999/xlink" xml:space="preserve" xmlns:serif="http://www.serif.com/" style="fill-rule:evenodd;clip-rule:evenodd;stroke-linecap:round;stroke-linejoin:round;stroke-miterlimit:1.5;">
    <path d="M46.56,126.653L106.501,15.432L172.902,127.352L46.56,126.653Z" style="fill:#e16e6e;stroke:#000;stroke-width:1.09px;"/>
    <path d="M46.62,126.663L106.285,91.301" style="fill:none;stroke:#000;stroke-width:1.09px;"/>
    <path d="M106.526,15.954L106.339,91.425" style="fill:none;stroke:#000;stroke-width:1.09px;"/>
    <path d="M83.722,104.708L106.8,52.103L138.871,108.591L83.722,104.708Z" style="fill:#ba2727;fill-opacity:0.39;stroke:#fff;stroke-width:1.09px;"/>
    <path d="M173.001,127.195L106.33,91.346" style="fill:none;stroke:#000;stroke-width:1.09px;"/>
    <path d="M83.183,101.847C84.79,101.848 86.094,103.151 86.093,104.755C86.092,106.358 84.786,107.659 83.179,107.658C81.572,107.657 80.268,106.354 80.269,104.751C80.27,103.147 81.576,101.846 83.183,101.847Z" style="fill:#fff;stroke:#000;stroke-width:1.09px;"/>
    <path d="M138.372,105.739C139.979,105.74 141.283,107.043 141.282,108.646C141.281,110.25 139.975,111.551 138.368,111.55C136.761,111.548 135.458,110.246 135.459,108.642C135.46,107.038 136.765,105.737 138.372,105.739Z" style="fill:#fff;stroke:#000;stroke-width:1.09px;"/>
    <path d="M106.397,49.515C108.004,49.516 109.307,50.819 109.306,52.423C109.305,54.026 107.999,55.327 106.392,55.326C104.786,55.325 103.482,54.022 103.483,52.419C103.484,50.815 104.79,49.514 106.397,49.515Z" style="fill:#fff;stroke:#000;stroke-width:1.09px;"/>
    <g transform="matrix(1,0.00071664,-0.00071664,1,-0.0232925,0.331081)">
        <text x="36.424px" y="130.615px" style="font-family:'Helvetica-Bold', 'Helvetica';font-weight:700;font-size:5.811px;fill:#848484;">100</text>
    </g>
    <g transform="matrix(1,0.00071664,-0.00071664,1,-0.0236649,0.23208)">
        <text x="174.57px" y="130.045px" style="font-family:'Helvetica-Bold', 'Helvetica';font-weight:700;font-size:5.811px;fill:#848484;">100</text>
    </g>
    <g transform="matrix(1,0.00071664,-0.00071664,1,-0.107358,0.28465)">
        <text x="101.172px" y="13.287px" style="font-family:'Helvetica-Bold', 'Helvetica';font-weight:700;font-size:5.811px;fill:#848484;">100</text>
    </g>
    <path d="M106.53,88.278C108.307,88.279 109.748,89.756 109.747,91.574C109.745,93.392 108.302,94.867 106.525,94.866C104.749,94.865 103.308,93.388 103.309,91.57C103.31,89.752 104.754,88.277 106.53,88.278Z" style="fill:#fff;stroke:#090000;stroke-width:1.09px;"/>
    <g transform="matrix(1,0.00071664,-0.00071664,1,-0.0501152,0.281931)">
        <text x="104.995px" y="93.161px" style="font-family:'Helvetica-Bold', 'Helvetica';font-weight:700;font-size:5.811px;fill:#848484;">0</text>
    </g>
    <g transform="matrix(1,0.00071664,-0.00071664,1,-0.132109,0.366623)">
        <text x="77.045px" y="5.29px" style="font-family:'HelveticaNeue-Bold', 'Helvetica Neue';font-weight:700;font-size:8px;">What the system is</text>
    </g>
    <g transform="matrix(1,0.00071664,-0.00071664,1,-0.0347378,0.421791)">
        <text x="0.112px" y="141.19px" style="font-family:'HelveticaNeue-Bold', 'Helvetica Neue';font-weight:700;font-size:8px;">Why the system works</text>
    </g>
    <text x="144.567px" y="141.955px" style="font-family:'HelveticaNeue-Bold', 'Helvetica Neue';font-weight:700;font-size:8px;">How the system works</text>
</svg>
