<?xml version="1.0" encoding="UTF-8" standalone="no"?>
<!DOCTYPE svg PUBLIC "-//W3C//DTD SVG 1.1//EN" "http://www.w3.org/Graphics/SVG/1.1/DTD/svg11.dtd">
<svg width="100%" height="100%" viewBox="0 0 232 144" version="1.1" xmlns="http://www.w3.org/2000/svg" xmlns:xlink="http://www.w3.org/1999/xlink" xml:space="preserve" xmlns:serif="http://www.serif.com/" style="fill-rule:evenodd;clip-rule:evenodd;stroke-linecap:round;stroke-linejoin:round;stroke-miterlimit:1.5;">
    <path d="M45.884,127.352L109.629,17.053L172.902,127.352L45.884,127.352Z" style="fill:#e16e6e;stroke:#000;stroke-width:1.09px;"/>
    <path d="M109.708,17.272L109.527,90.317" style="fill:none;stroke:#000;stroke-width:1.07px;"/>
    <path d="M46.236,126.829L109.495,90.306" style="fill:none;stroke:#000;stroke-width:1.07px;"/>
    <path d="M172.705,127.087L109.616,90.352" style="fill:none;stroke:#000;stroke-width:1.07px;"/>
    <path d="M109.535,87.555C111.311,87.556 112.752,89.033 112.751,90.851C112.75,92.669 111.306,94.144 109.53,94.143C107.753,94.141 106.312,92.664 106.313,90.846C106.315,89.028 107.758,87.553 109.535,87.555Z" style="fill:#e16e6e;"/>
    <path d="M83.976,105.105L109.594,52.163L139.493,107.832L83.976,105.105Z" style="fill:#ba2727;fill-opacity:0.39;stroke:#fff;stroke-width:1.09px;"/>
    <g transform="matrix(1,0.00071664,-0.00071664,1,-0.0225313,0.332522)">
        <text x="34.413px" y="131.677px" style="font-family:'Helvetica-Bold', 'Helvetica';font-weight:700;font-size:5.811px;fill:#848484;">100</text>
    </g>
    <g transform="matrix(1,0.00071664,-0.00071664,1,-0.0222556,0.232198)">
        <text x="174.406px" y="132.012px" style="font-family:'Helvetica-Bold', 'Helvetica';font-weight:700;font-size:5.811px;fill:#848484;">100</text>
    </g>
    <g transform="matrix(1,0.00071664,-0.00071664,1,-0.106499,0.282176)">
        <text x="104.624px" y="14.483px" style="font-family:'Helvetica-Bold', 'Helvetica';font-weight:700;font-size:5.811px;fill:#848484;">100</text>
    </g>
    <g transform="matrix(1,0.00071664,-0.00071664,1,-0.0506329,0.279777)">
        <text x="107.999px" y="92.438px" style="font-family:'Helvetica-Bold', 'Helvetica';font-weight:700;font-size:5.811px;fill:#fff;">0</text>
    </g>
    <g transform="matrix(1,0.00071664,-0.00071664,1,-0.132109,0.366623)">
        <text x="77.045px" y="5.29px" style="font-family:'HelveticaNeue-Bold', 'Helvetica Neue';font-weight:700;font-size:8px;">What the system is</text>
    </g>
    <g transform="matrix(1,0.00071664,-0.00071664,1,-0.0347378,0.421791)">
        <text x="0.112px" y="141.19px" style="font-family:'HelveticaNeue-Bold', 'Helvetica Neue';font-weight:700;font-size:8px;">Why the system works</text>
    </g>
    <text x="144.567px" y="141.955px" style="font-family:'HelveticaNeue-Bold', 'Helvetica Neue';font-weight:700;font-size:8px;">How the system works</text>
    <circle cx="109.489" cy="52.162" r="5" style="fill:#fff;fill-opacity:0.64;stroke:#000;stroke-width:0.63px;"/>
    <circle cx="84.18" cy="105.246" r="5" style="fill:#fff;fill-opacity:0.64;stroke:#000;stroke-width:0.63px;"/>
    <circle cx="138.495" cy="107.92" r="5" style="fill:#fff;fill-opacity:0.64;stroke:#000;stroke-width:0.63px;"/>
</svg>
